<svg width="787" height="636" viewBox="0 0 787 636" fill="none" xmlns="http://www.w3.org/2000/svg">
<path d="M343.472 524.59L318.819 533.776C316.534 534.627 315.371 537.17 316.223 539.456L325.408 564.109C326.26 566.395 328.803 567.557 331.088 566.706L355.741 557.52C358.027 556.669 359.189 554.125 358.338 551.84L349.152 527.187C348.301 524.901 345.757 523.739 343.472 524.59ZM348.519 550.785L332.143 556.887L326.041 540.511L342.417 534.409L348.519 550.785Z" fill="#FAFAFA"/>
<path d="M392.777 506.22L368.125 515.405C365.84 516.256 364.677 518.8 365.528 521.085L374.714 545.738C375.565 548.024 378.109 549.186 380.394 548.335L405.047 539.149C407.332 538.298 408.495 535.755 407.643 533.469L398.458 508.816C397.606 506.53 395.063 505.368 392.777 506.22ZM397.824 532.414L381.449 538.516L375.347 522.14L391.723 516.038L397.824 532.414Z" fill="#FAFAFA"/>
<path d="M451.271 512.496L430.757 520.14L413.93 474.976C413.078 472.691 410.535 471.528 408.249 472.38L387.731 480.025L380.087 459.51C379.236 457.225 376.692 456.062 374.407 456.914L300.448 484.47C298.163 485.321 297 487.865 297.852 490.15L305.495 510.665L284.977 518.31C282.691 519.161 281.529 521.705 282.38 523.99L299.207 569.153L278.693 576.797C276.408 577.648 275.245 580.192 276.097 582.477L294.47 631.791C295.322 634.077 297.866 635.239 300.151 634.388L324.803 625.203C327.089 624.351 328.251 621.808 327.4 619.522L319.755 599.004L336.135 592.901L343.78 613.419C344.631 615.705 347.175 616.867 349.46 616.016L374.113 606.83C376.398 605.979 377.561 603.436 376.71 601.15L369.065 580.631L385.441 574.53L393.086 595.048C393.937 597.334 396.481 598.496 398.766 597.645L423.418 588.46C425.704 587.608 426.867 585.065 426.015 582.779L418.37 562.261L434.75 556.158L442.395 576.676C443.247 578.962 445.79 580.124 448.075 579.273L472.728 570.087C475.014 569.236 476.177 566.693 475.325 564.407L456.951 515.093C456.1 512.807 453.557 511.645 451.271 512.496ZM465.507 563.352L449.131 569.454L441.486 548.935C440.634 546.649 438.091 545.487 435.806 546.338L411.148 555.525C408.863 556.377 407.7 558.92 408.552 561.206L416.197 581.724L399.821 587.826L392.176 567.307C391.324 565.022 388.781 563.859 386.496 564.711L361.843 573.896C359.557 574.748 358.395 577.291 359.246 579.577L366.891 600.095L350.515 606.197L342.87 585.678C342.019 583.392 339.475 582.23 337.19 583.082L312.533 592.268C310.248 593.12 309.085 595.663 309.936 597.949L317.581 618.467L301.205 624.569L285.915 583.532L306.429 575.889C308.715 575.037 309.878 572.494 309.026 570.208L292.199 525.045L312.717 517.4C315.002 516.549 316.165 514.005 315.314 511.72L307.67 491.205L373.352 466.733L380.995 487.247C381.847 489.533 384.391 490.695 386.676 489.844L407.194 482.199L424.022 527.362C424.873 529.648 427.417 530.81 429.702 529.959L450.216 522.315L465.506 563.352L465.507 563.352Z" fill="#FAFAFA"/>
<path d="M196.225 201.824C196.252 201.774 196.277 201.723 196.301 201.672C196.324 201.622 196.346 201.572 196.367 201.522C196.387 201.472 196.406 201.421 196.424 201.37C196.443 201.318 196.46 201.266 196.476 201.212C196.491 201.161 196.505 201.108 196.518 201.056C196.531 201.002 196.543 200.949 196.554 200.895C196.564 200.842 196.573 200.788 196.581 200.734C196.589 200.679 196.596 200.624 196.601 200.569C196.605 200.516 196.609 200.463 196.612 200.409C196.614 200.351 196.615 200.293 196.615 200.236C196.615 200.185 196.613 200.134 196.61 200.083C196.607 200.021 196.602 199.96 196.595 199.899C196.592 199.87 196.592 199.842 196.588 199.814L180.732 79.9195C177.555 55.901 165.215 34.5575 145.986 19.8198C126.756 5.08251 102.939 -1.28435 78.92 1.89223C54.9015 5.06881 33.5576 17.4085 18.8199 36.6382C4.08266 55.8682 -2.2842 79.6858 0.892383 103.704L16.7491 223.599C16.7529 223.628 16.7604 223.655 16.7646 223.684C16.7743 223.744 16.7848 223.805 16.7979 223.865C16.8087 223.915 16.8209 223.965 16.8338 224.015C16.8483 224.07 16.8646 224.126 16.882 224.181C16.8985 224.232 16.9158 224.283 16.9343 224.333C16.9534 224.384 16.9741 224.435 16.9961 224.486C17.0175 224.536 17.0402 224.586 17.064 224.635C17.0883 224.684 17.1137 224.732 17.1404 224.78C17.1666 224.828 17.1935 224.875 17.222 224.92C17.2511 224.967 17.2813 225.013 17.3128 225.059C17.3437 225.104 17.3754 225.148 17.4086 225.191C17.4414 225.234 17.4753 225.276 17.5105 225.318C17.5476 225.362 17.5855 225.405 17.6245 225.447C17.6595 225.484 17.6953 225.521 17.7323 225.557C17.7761 225.6 17.8214 225.642 17.8678 225.682C17.8898 225.701 17.909 225.722 17.9314 225.74C17.9471 225.754 17.9637 225.764 17.9798 225.776C18.0328 225.819 18.0872 225.859 18.1428 225.898C18.1825 225.926 18.2219 225.954 18.2622 225.981C18.3154 226.015 18.3699 226.046 18.4248 226.077C18.4692 226.102 18.5129 226.129 18.5579 226.152C18.6129 226.18 18.6699 226.204 18.7261 226.229C18.7719 226.249 18.8177 226.271 18.8641 226.289C18.9297 226.315 18.9972 226.336 19.0648 226.357C19.1033 226.369 19.1408 226.383 19.1795 226.394C19.4992 226.483 19.836 226.526 20.1813 226.515C20.2543 226.513 20.3273 226.504 20.4 226.497C20.4397 226.493 20.479 226.493 20.519 226.487L20.5194 226.487L20.5198 226.487C20.6272 226.473 20.7334 226.453 20.839 226.429C20.8785 226.42 20.9162 226.407 20.955 226.397C21.0196 226.379 21.0843 226.362 21.1479 226.341C21.1933 226.325 21.2372 226.308 21.2815 226.29C21.3367 226.269 21.3919 226.248 21.4459 226.224C21.4911 226.204 21.5348 226.182 21.5788 226.16C21.6304 226.134 21.6817 226.108 21.7321 226.079C21.775 226.055 21.8165 226.029 21.858 226.003C21.9068 225.973 21.9553 225.942 22.0029 225.908C22.0437 225.88 22.0829 225.85 22.1221 225.82C22.167 225.785 22.2115 225.75 22.2549 225.713C22.2945 225.679 22.3326 225.644 22.3703 225.609C22.4098 225.572 22.4489 225.534 22.4869 225.495C22.5253 225.455 22.5622 225.414 22.5986 225.373C22.6189 225.35 22.6411 225.328 22.6608 225.305L39.6738 204.845L61.4207 220.179C62.8513 221.188 64.8182 220.928 65.9381 219.581L82.952 199.121L104.705 214.454C106.137 215.463 108.103 215.203 109.222 213.856L126.23 193.397L147.99 208.73C149.421 209.738 151.386 209.478 152.506 208.133L169.548 187.666L191.325 202.999C191.349 203.016 191.375 203.029 191.399 203.046C191.449 203.079 191.5 203.112 191.552 203.142C191.598 203.169 191.643 203.195 191.689 203.219C191.739 203.246 191.79 203.271 191.841 203.295C191.891 203.318 191.94 203.34 191.99 203.361C192.041 203.381 192.092 203.4 192.143 203.419C192.195 203.437 192.248 203.454 192.3 203.47C192.352 203.486 192.405 203.5 192.458 203.512C192.511 203.525 192.564 203.537 192.617 203.548C192.671 203.558 192.725 203.567 192.781 203.575C192.834 203.583 192.888 203.59 192.942 203.595C192.996 203.6 193.051 203.603 193.106 203.606C193.162 203.609 193.218 203.61 193.274 203.609C193.327 203.609 193.379 203.607 193.432 203.605C193.492 203.601 193.551 203.597 193.61 203.59C193.64 203.587 193.669 203.587 193.699 203.583C193.721 203.58 193.742 203.574 193.765 203.571C193.822 203.562 193.879 203.551 193.936 203.539C193.989 203.528 194.043 203.517 194.096 203.504C194.146 203.491 194.196 203.475 194.246 203.46C194.303 203.443 194.359 203.425 194.414 203.405C194.459 203.389 194.504 203.37 194.548 203.351C194.604 203.328 194.661 203.305 194.715 203.278C194.759 203.257 194.802 203.233 194.846 203.21C194.898 203.182 194.949 203.155 194.999 203.124C195.045 203.097 195.089 203.067 195.133 203.037C195.178 203.006 195.224 202.976 195.267 202.944C195.312 202.91 195.355 202.874 195.398 202.838C195.439 202.804 195.48 202.771 195.519 202.735C195.56 202.698 195.599 202.658 195.638 202.619C195.677 202.58 195.716 202.54 195.753 202.5C195.787 202.461 195.821 202.42 195.854 202.379C195.892 202.333 195.929 202.286 195.965 202.238C195.978 202.22 195.992 202.204 196.005 202.187C196.021 202.162 196.035 202.137 196.051 202.113C196.085 202.063 196.117 202.012 196.148 201.96C196.175 201.916 196.201 201.87 196.225 201.824ZM166.368 180.988L149.327 201.455L127.565 186.121C126.134 185.112 124.167 185.373 123.048 186.72L106.04 207.178L84.2875 191.845C82.8561 190.836 80.8895 191.096 79.7701 192.443L62.7566 212.903L41.0098 197.569C39.5787 196.559 37.6117 196.82 36.4923 198.167L22.4023 215.111L7.55158 102.824C1.47975 56.9138 33.8905 14.6233 79.8007 8.55143C125.711 2.47955 168.001 34.8904 174.073 80.8002L188.924 193.094L170.883 180.391C169.452 179.384 167.488 179.644 166.368 180.988Z" fill="#FAFAFA"/>
<path d="M67.2545 88.4194C65.6677 89.3801 65.1603 91.4452 66.121 93.032C67.0822 94.6195 67.6945 96.3671 67.9403 98.2254C68.9118 105.571 63.7261 112.338 56.3801 113.31C49.0342 114.281 42.2672 109.096 41.2956 101.749C40.324 94.4034 45.5099 87.6368 52.8562 86.6652C54.7087 86.4202 56.5492 86.5554 58.3264 87.0665C60.1088 87.5787 61.9699 86.5499 62.4829 84.7674C62.9958 82.9849 61.9663 81.1239 60.1838 80.611C57.5125 79.8425 54.7507 79.639 51.9759 80.006C40.9578 81.4632 33.1796 91.6124 34.6368 102.63C36.094 113.648 46.2432 121.426 57.2613 119.969C68.2789 118.512 76.0571 108.363 74.5999 97.3447C74.2317 94.5607 73.3124 91.939 71.8674 89.5528C70.9063 87.9661 68.8403 87.4584 67.2545 88.4194Z" fill="#FAFAFA"/>
<path d="M140.524 78.7292C138.937 79.6899 138.43 81.755 139.391 83.3418C140.352 84.9293 140.964 86.6769 141.21 88.5353C142.181 95.8812 136.996 102.648 129.65 103.62C122.304 104.591 115.537 99.4055 114.565 92.0592C113.594 84.7132 118.779 77.9466 126.126 76.975C127.978 76.73 129.819 76.8652 131.596 77.3763C133.378 77.8885 135.239 76.8597 135.752 75.0772C136.265 73.2947 135.236 71.4337 133.453 70.9208C130.782 70.1523 128.02 69.9488 125.245 70.3158C114.227 71.773 106.449 81.9222 107.906 92.9398C109.364 103.958 119.513 111.736 130.531 110.279C141.548 108.822 149.327 98.6726 147.869 87.6545C147.501 84.8705 146.582 82.2488 145.137 79.8626C144.176 78.2759 142.11 77.7682 140.524 78.7292Z" fill="#FAFAFA"/>
<path d="M781.528 86.9987L765.539 77.019L770.353 69.2558C771.121 68.0175 770.741 66.388 769.505 65.6163C768.269 64.845 766.644 65.2235 765.876 66.4616L764.01 69.4722L750.599 61.1016C750.88 54.6874 750.285 48.2634 748.821 41.9818L739.607 2.43117C739.321 1.20186 738.208 0.346155 736.95 0.388459C706.453 1.41521 676.888 8.3026 649.077 20.8592C647.93 21.3771 647.309 22.637 647.595 23.8663L656.809 63.4169C660.113 77.5977 667.579 90.2308 678.4 99.9512C689.222 109.671 702.563 115.728 716.981 117.465C717.287 117.502 717.595 117.484 717.891 117.415C718.187 117.346 718.472 117.226 718.73 117.057C728.216 110.873 736.082 102.455 741.622 92.5975L747.425 96.2198L745.559 99.2304C744.791 100.469 745.17 102.098 746.407 102.87C747.025 103.256 747.74 103.354 748.396 103.201C749.053 103.048 749.651 102.644 750.035 102.025L754.849 94.2615L770.837 104.241C773.135 105.676 775.852 106.128 778.487 105.514C781.122 104.9 783.36 103.294 784.788 100.991C786.215 98.6884 786.663 95.9647 786.047 93.3221C785.431 90.679 783.826 88.4334 781.528 86.9987ZM757.885 79.3498L757.108 80.6037L695.99 42.4545L707.858 40.6434L761.229 73.9571L757.885 79.3498ZM734.71 45.2693C735.22 47.4585 735.595 49.6719 735.841 51.8893L709.812 35.6424C709.278 35.3091 708.643 35.178 708.021 35.2729L688.146 38.3061C687.384 38.4215 686.713 38.8658 686.308 39.5209C685.901 40.1757 685.802 40.9763 686.034 41.7122L692.106 60.9414C692.295 61.5427 692.693 62.0561 693.227 62.3894L729.299 84.9051C725.579 91.7398 720.575 97.598 714.382 102.349C704.608 100.394 695.529 95.8399 688.062 89.135C679.47 81.4161 673.543 71.3861 670.921 60.1295L664.298 31.7004C684.526 22.7048 705.967 17.71 728.087 16.8402L734.71 45.2693L734.71 45.2693ZM716.652 112.097C703.679 110.343 691.686 104.795 681.913 96.0173C671.903 87.0259 664.996 75.3394 661.941 62.2215L653.222 24.7965C679.17 13.3719 706.647 6.97089 734.972 5.75236L743.69 43.1774C744.815 48.0061 745.385 52.9257 745.397 57.8544L741.393 55.3555C741.228 51.5838 740.709 47.7958 739.842 44.0739L732.726 13.5303C732.441 12.3071 731.337 11.453 730.085 11.4872C705.774 12.1483 682.24 17.6306 660.139 27.7815C659.001 28.3038 658.389 29.5581 658.674 30.7812L665.789 61.325C668.659 73.6444 675.146 84.6209 684.549 93.0689C693.03 100.685 703.414 105.766 714.577 107.761C714.932 107.825 715.292 107.814 715.636 107.734C715.98 107.654 716.308 107.505 716.598 107.291C723.758 102.019 729.524 95.4367 733.781 87.7029L737.142 89.8007C732.167 98.7264 725.133 106.387 716.652 112.097ZM696.835 58.4213L693.21 46.9394L754.327 85.0883L750.206 91.7346L696.835 58.4213ZM762.759 81.5036L764.764 82.7554L763.035 93.1502L757.629 89.7761L762.759 81.5036ZM767.876 96.1718L769.605 85.777L773.143 87.9855L771.414 98.3802L767.876 96.1718ZM780.311 98.1965C779.626 99.3012 778.552 100.072 777.288 100.366C776.995 100.435 776.701 100.472 776.407 100.486L777.984 91.0071L778.747 91.4832C779.85 92.1716 780.62 93.2489 780.915 94.5168C781.21 95.7847 780.996 97.0917 780.311 98.1965Z" fill="#FAFAFA"/>
</svg>
