<svg width="118" height="118" viewBox="0 0 118 118" fill="none" xmlns="http://www.w3.org/2000/svg">
<path d="M100.096 100.096C110.227 89.9648 116.287 76.4683 117.129 62.1657C117.97 47.8631 113.534 33.7491 104.66 22.5003C95.787 11.2515 83.0941 3.65006 68.9889 1.13764C54.8836 -1.37477 40.3467 1.37651 28.1351 8.86974C15.9236 16.363 6.88643 28.077 2.7376 41.7905C-1.41124 55.5039 -0.383273 70.2631 5.62655 83.269C11.6364 96.2749 22.2101 106.623 35.3426 112.351C48.475 118.079 63.2529 118.789 76.8737 114.345L73.3888 103.663C62.3842 107.253 50.4448 106.68 39.8348 102.052C29.2248 97.424 20.6821 89.0634 15.8266 78.5557C10.9711 68.0479 10.1406 56.1237 13.4925 45.0443C16.8445 33.9649 24.1458 24.5008 34.0118 18.4468C43.8778 12.3929 55.6225 10.1701 67.0185 12.1999C78.4144 14.2297 88.6693 20.3711 95.8382 29.4593C103.007 38.5475 106.592 49.9505 105.912 61.5059C105.232 73.0612 100.335 83.9654 92.1504 92.1504L100.096 100.096Z" fill="url(#paint0_angular_485_1468)"/>
<defs>
<radialGradient id="paint0_angular_485_1468" cx="0" cy="0" r="1" gradientUnits="userSpaceOnUse" gradientTransform="translate(62.3275 58.7305) rotate(74.0546) scale(52.3728)">
<stop stop-color="#FF5C00"/>
<stop offset="1" stop-color="#FF9649" stop-opacity="0.21"/>
</radialGradient>
</defs>
</svg>
