<svg width="21" height="21" viewBox="0 0 21 21" fill="none" xmlns="http://www.w3.org/2000/svg">
<path d="M17.6293 17.6297C19.3951 15.8639 20.4514 13.5115 20.5981 11.0187C20.7447 8.5258 19.9714 6.06579 18.4249 4.10518C16.8783 2.14456 14.666 0.819671 12.2075 0.381769C9.74903 -0.0561327 7.21532 0.423403 5.0869 1.72944C2.95848 3.03547 1.38336 5.07718 0.660235 7.46736C-0.0628876 9.85755 0.116282 12.43 1.16376 14.6969C2.21125 16.9637 4.0542 18.7674 6.34312 19.7657C8.63204 20.7641 11.2078 20.8878 13.5818 20.1133L12.9744 18.2514C11.0564 18.8771 8.97538 18.7772 7.12611 17.9706C5.27683 17.164 3.78787 15.7068 2.94158 13.8754C2.0953 12.0439 1.95054 9.96557 2.53477 8.03448C3.119 6.1034 4.39158 4.45385 6.11118 3.39868C7.83078 2.3435 9.87781 1.95608 11.8641 2.30987C13.8503 2.66366 15.6377 3.73407 16.8872 5.31809C18.1367 6.90212 18.7615 8.88962 18.643 10.9037C18.5245 12.9177 17.6711 14.8182 16.2445 16.2449L17.6293 17.6297Z" fill="url(#paint0_angular_836_3212)"/>
<defs>
<radialGradient id="paint0_angular_836_3212" cx="0" cy="0" r="1" gradientUnits="userSpaceOnUse" gradientTransform="translate(11.0465 10.4199) rotate(74.0546) scale(9.12832)">
<stop stop-color="#FF5C00"/>
<stop offset="1" stop-color="#FF9649" stop-opacity="0.21"/>
</radialGradient>
</defs>
</svg>
