<svg width="81" height="23" viewBox="0 0 81 23" fill="none" xmlns="http://www.w3.org/2000/svg">
<path d="M5.32 12.192C4.65867 12.192 4.01867 12.096 3.4 11.904C2.792 11.7013 2.232 11.408 1.72 11.024C1.21867 10.64 0.813333 10.128 0.504 9.488C0.205333 8.848 0.056 8.128 0.056 7.328C0.056 6.16533 0.354667 5.072 0.952 4.048C1.54933 3.024 2.38667 2.19733 3.464 1.568C4.552 0.928 5.74667 0.608 7.048 0.608C9.10667 0.608 10.632 1.25333 11.624 2.544L9.8 4.16C9.01067 3.296 8.02933 2.864 6.856 2.864C5.672 2.864 4.66933 3.30133 3.848 4.176C3.02667 5.04 2.616 6.064 2.616 7.248C2.616 8.09067 2.888 8.752 3.432 9.232C3.976 9.70133 4.65867 9.936 5.48 9.936C6.17333 9.936 6.84 9.792 7.48 9.504L8.008 7.68H5.528L6.104 5.552H10.968L9.384 11.136C8.136 11.84 6.78133 12.192 5.32 12.192ZM10.5724 12L18.3964 0.719999H20.7644L22.5404 12H20.0124L19.6604 9.488H14.9244L13.2284 12H10.5724ZM16.3964 7.312H19.3724L18.8604 3.616L16.3964 7.312ZM23.9108 12L26.9188 0.799999H29.4788L31.0948 5.536L35.2708 0.799999H38.1188L35.1108 12H32.6148L34.5668 4.688L30.1828 9.472H30.1188L28.3268 4.736L26.3748 12H23.9108ZM37.8014 12L40.8094 0.799999H49.1774L48.5854 2.992H42.6654L42.0574 5.28H47.2574L46.6654 7.44H41.4654L40.8254 9.808H46.8414L46.2494 12H37.8014Z" fill="#2D2D2E"/>
<path d="M9.192 23L12.2 11.8H14.76L16.376 16.536L20.552 11.8H23.4L20.392 23H17.896L19.848 15.688L15.464 20.472H15.4L13.608 15.736L11.656 23H9.192ZM21.9786 23L29.8026 11.72H32.1706L33.9466 23H31.4186L31.0666 20.488H26.3306L24.6346 23H21.9786ZM27.8026 18.312H30.7786L30.2666 14.616L27.8026 18.312ZM35.317 23L38.325 11.8H42.405C44.0263 11.8 45.2103 12.1733 45.957 12.92C46.533 13.496 46.821 14.248 46.821 15.176C46.821 16.264 46.4797 17.1493 45.797 17.832C45.157 18.472 44.293 18.92 43.205 19.176L45.109 23H42.309L40.581 19.416H38.741L37.781 23H35.317ZM39.333 17.24H41.525C42.549 17.24 43.301 17 43.781 16.52C44.0903 16.2107 44.245 15.832 44.245 15.384C44.245 15.0213 44.1277 14.7227 43.893 14.488C43.5837 14.1787 43.0397 14.024 42.261 14.024H40.197L39.333 17.24ZM46.942 23L49.95 11.8H52.414L51.086 16.76L56.622 11.8H59.95L54.494 16.488L57.134 23H54.43L52.542 17.96L50.222 19.944L49.406 23H46.942ZM58.567 23L61.575 11.8H69.943L69.351 13.992H63.431L62.823 16.28H68.023L67.431 18.44H62.231L61.591 20.808H67.607L67.015 23H58.567ZM71.5596 23L73.9596 14.072H70.5516L71.1596 11.8H80.4396L79.8316 14.072H76.4236L74.0236 23H71.5596Z" fill="#FF5C00"/>
</svg>
