<svg width="576" height="614" viewBox="0 0 576 614" fill="none" xmlns="http://www.w3.org/2000/svg">
<path d="M207.225 211.824C207.252 211.774 207.277 211.723 207.301 211.672C207.324 211.622 207.346 211.572 207.367 211.522C207.387 211.472 207.406 211.421 207.424 211.37C207.443 211.318 207.46 211.266 207.476 211.212C207.491 211.161 207.505 211.108 207.518 211.056C207.531 211.002 207.543 210.949 207.554 210.895C207.564 210.842 207.573 210.788 207.581 210.734C207.589 210.679 207.596 210.624 207.601 210.569C207.605 210.516 207.609 210.463 207.612 210.409C207.614 210.351 207.615 210.293 207.615 210.236C207.615 210.185 207.613 210.134 207.61 210.083C207.607 210.021 207.602 209.96 207.595 209.899C207.592 209.87 207.592 209.842 207.588 209.814L191.732 89.9195C188.555 65.901 176.215 44.5575 156.986 29.8198C137.756 15.0825 113.939 8.71565 89.92 11.8922C65.9015 15.0688 44.5576 27.4085 29.8199 46.6382C15.0827 65.8682 8.7158 89.6858 11.8924 113.704L27.7491 233.599C27.7529 233.628 27.7604 233.655 27.7646 233.684C27.7743 233.744 27.7848 233.805 27.7979 233.865C27.8087 233.915 27.8209 233.965 27.8338 234.015C27.8483 234.07 27.8646 234.126 27.882 234.181C27.8985 234.232 27.9158 234.283 27.9342 234.333C27.9534 234.384 27.9741 234.435 27.9961 234.486C28.0175 234.536 28.0402 234.586 28.064 234.635C28.0883 234.684 28.1137 234.732 28.1404 234.78C28.1666 234.828 28.1935 234.875 28.222 234.92C28.2511 234.967 28.2813 235.013 28.3128 235.059C28.3437 235.104 28.3754 235.148 28.4086 235.191C28.4414 235.234 28.4753 235.276 28.5105 235.318C28.5476 235.362 28.5855 235.405 28.6245 235.447C28.6595 235.484 28.6953 235.521 28.7323 235.557C28.7761 235.6 28.8214 235.642 28.8678 235.682C28.8898 235.701 28.909 235.722 28.9314 235.74C28.9471 235.754 28.9637 235.764 28.9798 235.776C29.0328 235.819 29.0872 235.859 29.1428 235.898C29.1825 235.926 29.2219 235.954 29.2622 235.981C29.3154 236.015 29.3699 236.046 29.4248 236.077C29.4692 236.102 29.5129 236.129 29.5579 236.152C29.6129 236.18 29.6699 236.204 29.7261 236.229C29.7719 236.249 29.8177 236.271 29.8641 236.289C29.9297 236.315 29.9972 236.336 30.0648 236.357C30.1033 236.369 30.1408 236.383 30.1795 236.394C30.4992 236.483 30.836 236.526 31.1813 236.515C31.2543 236.513 31.3273 236.504 31.4 236.497C31.4397 236.493 31.479 236.493 31.519 236.487L31.5194 236.487L31.5198 236.487C31.6272 236.473 31.7334 236.453 31.839 236.429C31.8785 236.42 31.9162 236.407 31.955 236.397C32.0196 236.379 32.0843 236.362 32.1479 236.341C32.1933 236.325 32.2372 236.308 32.2815 236.29C32.3367 236.269 32.3919 236.248 32.4459 236.224C32.4911 236.204 32.5348 236.182 32.5788 236.16C32.6304 236.134 32.6817 236.108 32.7321 236.079C32.775 236.055 32.8165 236.029 32.858 236.003C32.9069 235.973 32.9553 235.942 33.0029 235.908C33.0437 235.88 33.0829 235.85 33.1221 235.82C33.167 235.785 33.2115 235.75 33.2549 235.713C33.2945 235.679 33.3326 235.644 33.3703 235.609C33.4098 235.572 33.4489 235.534 33.4869 235.495C33.5253 235.455 33.5622 235.414 33.5986 235.373C33.6189 235.35 33.6411 235.328 33.6608 235.305L50.6738 214.845L72.4207 230.178C73.8513 231.188 75.8182 230.928 76.9381 229.581L93.952 209.121L115.705 224.454C117.137 225.463 119.103 225.203 120.222 223.856L137.23 203.397L158.99 218.73C160.421 219.738 162.386 219.478 163.506 218.133L180.548 197.666L202.325 212.999C202.349 213.016 202.375 213.029 202.399 213.046C202.449 213.079 202.5 213.112 202.552 213.142C202.598 213.169 202.643 213.195 202.689 213.219C202.739 213.246 202.79 213.271 202.841 213.295C202.891 213.318 202.94 213.34 202.99 213.361C203.041 213.381 203.092 213.4 203.143 213.419C203.195 213.437 203.248 213.454 203.3 213.47C203.352 213.486 203.405 213.5 203.458 213.512C203.511 213.525 203.564 213.538 203.617 213.548C203.671 213.558 203.725 213.567 203.781 213.575C203.834 213.583 203.888 213.59 203.942 213.595C203.996 213.6 204.051 213.603 204.106 213.606C204.162 213.609 204.218 213.61 204.274 213.609C204.327 213.609 204.379 213.607 204.432 213.605C204.492 213.601 204.551 213.597 204.61 213.59C204.64 213.587 204.669 213.587 204.699 213.583C204.721 213.58 204.742 213.574 204.765 213.571C204.822 213.562 204.879 213.551 204.936 213.539C204.989 213.528 205.043 213.517 205.096 213.504C205.146 213.491 205.196 213.475 205.246 213.46C205.303 213.443 205.359 213.425 205.414 213.405C205.459 213.389 205.504 213.37 205.548 213.351C205.604 213.328 205.661 213.305 205.715 213.278C205.759 213.257 205.802 213.233 205.846 213.21C205.898 213.182 205.949 213.155 205.999 213.124C206.045 213.097 206.089 213.067 206.133 213.037C206.178 213.006 206.224 212.976 206.267 212.944C206.312 212.91 206.355 212.874 206.398 212.838C206.439 212.804 206.48 212.771 206.519 212.735C206.56 212.698 206.599 212.658 206.638 212.619C206.677 212.58 206.716 212.54 206.753 212.5C206.787 212.461 206.821 212.42 206.854 212.379C206.892 212.333 206.929 212.286 206.965 212.238C206.978 212.22 206.992 212.204 207.005 212.187C207.021 212.162 207.035 212.137 207.051 212.113C207.085 212.063 207.117 212.012 207.148 211.96C207.175 211.916 207.201 211.87 207.225 211.824ZM177.368 190.988L160.327 211.455L138.565 196.121C137.134 195.112 135.167 195.373 134.048 196.72L117.04 217.178L95.2875 201.845C93.8561 200.836 91.8895 201.096 90.7701 202.443L73.7566 222.903L52.0098 207.569C50.5787 206.559 48.6117 206.82 47.4923 208.167L33.4023 225.111L18.5516 112.824C12.4798 66.9138 44.8905 24.6233 90.8007 18.5514C136.711 12.4795 179.001 44.8904 185.073 90.8002L199.924 203.094L181.883 190.391C180.452 189.384 178.488 189.644 177.368 190.988Z" fill="#FAFAFA"/>
<path d="M78.2545 98.4194C76.6677 99.3801 76.1603 101.445 77.121 103.032C78.0822 104.62 78.6945 106.367 78.9403 108.225C79.9118 115.571 74.7261 122.338 67.3801 123.31C60.0342 124.281 53.2672 119.096 52.2956 111.749C51.324 104.403 56.5099 97.6368 63.8562 96.6652C65.7087 96.4202 67.5492 96.5554 69.3264 97.0665C71.1088 97.5787 72.9699 96.5499 73.4829 94.7674C73.9958 92.9849 72.9663 91.1239 71.1838 90.611C68.5125 89.8425 65.7507 89.639 62.9759 90.006C51.9578 91.4632 44.1796 101.612 45.6368 112.63C47.094 123.648 57.2432 131.426 68.2613 129.969C79.2789 128.512 87.0571 118.363 85.5999 107.345C85.2317 104.561 84.3124 101.939 82.8674 99.5528C81.9063 97.9661 79.8403 97.4584 78.2545 98.4194Z" fill="#FAFAFA"/>
<path d="M151.524 88.7292C149.937 89.6899 149.43 91.755 150.391 93.3418C151.352 94.9293 151.964 96.6769 152.21 98.5353C153.181 105.881 147.996 112.648 140.65 113.62C133.304 114.591 126.537 109.406 125.565 102.059C124.594 94.7132 129.779 87.9466 137.126 86.975C138.978 86.73 140.819 86.8652 142.596 87.3763C144.378 87.8885 146.239 86.8597 146.752 85.0772C147.265 83.2947 146.236 81.4337 144.453 80.9208C141.782 80.1523 139.02 79.9488 136.245 80.3158C125.227 81.773 117.449 91.9222 118.906 102.94C120.364 113.958 130.513 121.736 141.531 120.279C152.548 118.822 160.327 108.673 158.869 97.6545C158.501 94.8705 157.582 92.2488 156.137 89.8626C155.176 88.2759 153.11 87.7682 151.524 88.7292Z" fill="#FAFAFA"/>
<path d="M570.528 96.9987L554.539 87.019L559.353 79.2558C560.121 78.0175 559.741 76.388 558.505 75.6163C557.269 74.845 555.644 75.2235 554.876 76.4616L553.01 79.4722L539.599 71.1016C539.88 64.6874 539.285 58.2634 537.821 51.9817L528.607 12.4312C528.321 11.2019 527.208 10.3462 525.95 10.3885C495.453 11.4152 465.888 18.3026 438.077 30.8592C436.93 31.3771 436.309 32.637 436.595 33.8663L445.809 73.4169C449.113 87.5977 456.579 100.231 467.4 109.951C478.222 119.671 491.563 125.728 505.981 127.465C506.287 127.502 506.595 127.484 506.891 127.415C507.187 127.346 507.472 127.226 507.73 127.057C517.216 120.873 525.082 112.455 530.622 102.598L536.425 106.22L534.559 109.23C533.791 110.469 534.17 112.098 535.407 112.87C536.025 113.256 536.74 113.354 537.396 113.201C538.053 113.048 538.651 112.644 539.035 112.025L543.849 104.261L559.837 114.241C562.135 115.676 564.852 116.128 567.487 115.514C570.122 114.9 572.36 113.294 573.788 110.991C575.215 108.688 575.663 105.965 575.047 103.322C574.431 100.679 572.826 98.4334 570.528 96.9987ZM546.885 89.3498L546.108 90.6037L484.99 52.4545L496.858 50.6434L550.229 83.9571L546.885 89.3498ZM523.71 55.2693C524.22 57.4585 524.595 59.6719 524.841 61.8893L498.812 45.6424C498.278 45.3091 497.643 45.178 497.021 45.2729L477.146 48.3061C476.384 48.4215 475.713 48.8658 475.308 49.5209C474.901 50.1757 474.802 50.9763 475.034 51.7122L481.106 70.9414C481.295 71.5427 481.693 72.0561 482.227 72.3894L518.299 94.9051C514.579 101.74 509.575 107.598 503.382 112.349C493.608 110.394 484.529 105.84 477.062 99.135C468.47 91.4161 462.543 81.3861 459.921 70.1295L453.298 41.7004C473.526 32.7048 494.967 27.71 517.087 26.8402L523.71 55.2693L523.71 55.2693ZM505.652 122.097C492.679 120.343 480.686 114.795 470.913 106.017C460.903 97.0259 453.996 85.3394 450.941 72.2215L442.222 34.7965C468.17 23.3719 495.647 16.9709 523.972 15.7524L532.69 53.1774C533.815 58.0061 534.385 62.9257 534.397 67.8544L530.393 65.3555C530.228 61.5838 529.709 57.7958 528.842 54.0739L521.726 23.5303C521.441 22.3071 520.337 21.453 519.085 21.4872C494.774 22.1483 471.24 27.6306 449.139 37.7815C448.001 38.3038 447.389 39.5581 447.674 40.7812L454.789 71.325C457.659 83.6444 464.146 94.6209 473.549 103.069C482.03 110.685 492.414 115.766 503.577 117.761C503.932 117.825 504.292 117.814 504.636 117.734C504.98 117.654 505.308 117.505 505.598 117.291C512.758 112.019 518.524 105.437 522.781 97.7029L526.142 99.8007C521.167 108.726 514.133 116.387 505.652 122.097ZM485.835 68.4213L482.21 56.9394L543.327 95.0883L539.206 101.735L485.835 68.4213ZM551.759 91.5036L553.764 92.7554L552.035 103.15L546.629 99.7761L551.759 91.5036ZM556.876 106.172L558.605 95.777L562.143 97.9855L560.414 108.38L556.876 106.172ZM569.311 108.196C568.626 109.301 567.552 110.072 566.288 110.366C565.995 110.435 565.701 110.472 565.407 110.486L566.984 101.007L567.747 101.483C568.85 102.172 569.62 103.249 569.915 104.517C570.21 105.785 569.996 107.092 569.311 108.196Z" fill="#FAFAFA"/>
<path d="M365.472 502.59L340.819 511.776C338.534 512.627 337.371 515.17 338.223 517.456L347.408 542.109C348.26 544.395 350.803 545.557 353.088 544.706L377.741 535.52C380.027 534.669 381.189 532.125 380.338 529.84L371.152 505.187C370.301 502.901 367.757 501.739 365.472 502.59ZM370.519 528.785L354.143 534.887L348.041 518.511L364.417 512.409L370.519 528.785Z" fill="#FAFAFA"/>
<path d="M414.777 484.22L390.125 493.405C387.84 494.256 386.677 496.8 387.528 499.085L396.714 523.738C397.565 526.024 400.109 527.186 402.394 526.335L427.047 517.149C429.332 516.298 430.495 513.755 429.643 511.469L420.458 486.816C419.606 484.53 417.063 483.368 414.777 484.22ZM419.824 510.414L403.449 516.516L397.347 500.14L413.723 494.038L419.824 510.414V510.414Z" fill="#FAFAFA"/>
<path d="M473.271 490.496L452.757 498.14L435.93 452.976C435.078 450.691 432.535 449.528 430.249 450.38L409.731 458.025L402.087 437.51C401.236 435.225 398.692 434.062 396.407 434.914L322.448 462.47C320.163 463.321 319 465.865 319.852 468.15L327.495 488.665L306.977 496.31C304.691 497.161 303.529 499.705 304.38 501.99L321.207 547.153L300.693 554.797C298.408 555.648 297.245 558.192 298.097 560.477L316.47 609.791C317.322 612.077 319.866 613.239 322.151 612.388L346.803 603.203C349.089 602.351 350.251 599.808 349.4 597.522L341.755 577.004L358.135 570.901L365.78 591.419C366.631 593.705 369.175 594.867 371.46 594.016L396.113 584.83C398.398 583.979 399.561 581.436 398.71 579.15L391.065 558.631L407.441 552.53L415.086 573.048C415.937 575.334 418.481 576.496 420.766 575.645L445.418 566.46C447.704 565.608 448.867 563.065 448.015 560.779L440.37 540.261L456.75 534.158L464.395 554.676C465.247 556.962 467.79 558.124 470.075 557.273L494.728 548.087C497.014 547.236 498.177 544.693 497.325 542.407L478.951 493.093C478.1 490.807 475.557 489.645 473.271 490.496ZM487.507 541.352L471.131 547.454L463.486 526.935C462.634 524.649 460.091 523.487 457.806 524.338L433.148 533.525C430.863 534.377 429.7 536.92 430.552 539.206L438.197 559.724L421.821 565.826L414.176 545.307C413.324 543.022 410.781 541.859 408.496 542.711L383.843 551.896C381.557 552.748 380.395 555.291 381.246 557.577L388.891 578.095L372.515 584.197L364.87 563.678C364.019 561.392 361.475 560.23 359.19 561.082L334.533 570.268C332.248 571.12 331.085 573.663 331.936 575.949L339.581 596.467L323.205 602.569L307.915 561.532L328.429 553.889C330.715 553.037 331.878 550.494 331.026 548.208L314.199 503.045L334.717 495.4C337.002 494.549 338.165 492.005 337.314 489.72L329.67 469.205L395.352 444.733L402.995 465.247C403.847 467.533 406.391 468.695 408.676 467.844L429.194 460.199L446.022 505.362C446.873 507.648 449.417 508.81 451.702 507.959L472.216 500.315L487.506 541.352L487.507 541.352Z" fill="#FAFAFA"/>
</svg>
