<svg width="597" height="579" viewBox="0 0 597 579" fill="none" xmlns="http://www.w3.org/2000/svg">
<path d="M207.225 211.824C207.252 211.774 207.277 211.723 207.301 211.672C207.324 211.622 207.346 211.572 207.367 211.522C207.387 211.472 207.406 211.421 207.424 211.37C207.443 211.318 207.46 211.266 207.476 211.212C207.491 211.161 207.505 211.108 207.518 211.056C207.531 211.002 207.543 210.949 207.554 210.895C207.564 210.842 207.573 210.788 207.581 210.734C207.589 210.679 207.596 210.624 207.601 210.569C207.605 210.516 207.609 210.463 207.612 210.409C207.614 210.351 207.615 210.293 207.615 210.236C207.615 210.185 207.613 210.134 207.61 210.083C207.607 210.021 207.602 209.96 207.595 209.899C207.592 209.87 207.592 209.842 207.588 209.814L191.732 89.9195C188.555 65.901 176.215 44.5575 156.986 29.8198C137.756 15.0825 113.939 8.71565 89.92 11.8922C65.9015 15.0688 44.5576 27.4085 29.8199 46.6382C15.0827 65.8682 8.7158 89.6858 11.8924 113.704L27.7491 233.599C27.7529 233.628 27.7604 233.655 27.7646 233.684C27.7743 233.744 27.7848 233.805 27.7979 233.865C27.8087 233.915 27.8209 233.965 27.8338 234.015C27.8483 234.07 27.8646 234.126 27.882 234.181C27.8985 234.232 27.9158 234.283 27.9342 234.333C27.9534 234.384 27.9741 234.435 27.9961 234.486C28.0175 234.536 28.0402 234.586 28.064 234.635C28.0883 234.684 28.1137 234.732 28.1404 234.78C28.1666 234.828 28.1935 234.875 28.222 234.92C28.2511 234.967 28.2813 235.013 28.3128 235.059C28.3437 235.104 28.3754 235.148 28.4086 235.191C28.4414 235.234 28.4753 235.276 28.5105 235.318C28.5476 235.362 28.5855 235.405 28.6245 235.447C28.6595 235.484 28.6953 235.521 28.7323 235.557C28.7761 235.6 28.8214 235.642 28.8678 235.682C28.8898 235.701 28.909 235.722 28.9314 235.74C28.9471 235.754 28.9637 235.764 28.9798 235.776C29.0328 235.819 29.0872 235.859 29.1428 235.898C29.1825 235.926 29.2219 235.954 29.2622 235.981C29.3154 236.015 29.3699 236.046 29.4248 236.077C29.4692 236.102 29.5129 236.129 29.5579 236.152C29.6129 236.18 29.6699 236.204 29.7261 236.229C29.7719 236.249 29.8177 236.271 29.8641 236.289C29.9297 236.315 29.9972 236.336 30.0648 236.357C30.1033 236.369 30.1408 236.383 30.1795 236.394C30.4992 236.483 30.836 236.526 31.1813 236.515C31.2543 236.513 31.3273 236.504 31.4 236.497C31.4397 236.493 31.479 236.493 31.519 236.487L31.5194 236.487L31.5198 236.487C31.6272 236.473 31.7334 236.453 31.839 236.429C31.8785 236.42 31.9162 236.407 31.955 236.397C32.0196 236.379 32.0843 236.362 32.1479 236.341C32.1933 236.325 32.2372 236.308 32.2815 236.29C32.3367 236.269 32.3919 236.248 32.4459 236.224C32.4911 236.204 32.5348 236.182 32.5788 236.16C32.6304 236.134 32.6817 236.108 32.7321 236.079C32.775 236.055 32.8165 236.029 32.858 236.003C32.9069 235.973 32.9553 235.942 33.0029 235.908C33.0437 235.88 33.0829 235.85 33.1221 235.82C33.167 235.785 33.2115 235.75 33.2549 235.713C33.2945 235.679 33.3326 235.644 33.3703 235.609C33.4098 235.572 33.4489 235.534 33.4869 235.495C33.5253 235.455 33.5622 235.414 33.5986 235.373C33.6189 235.35 33.6411 235.328 33.6608 235.305L50.6738 214.845L72.4207 230.178C73.8513 231.188 75.8182 230.928 76.9381 229.581L93.952 209.121L115.705 224.454C117.137 225.463 119.103 225.203 120.222 223.856L137.23 203.397L158.99 218.73C160.421 219.738 162.386 219.478 163.506 218.133L180.548 197.666L202.325 212.999C202.349 213.016 202.375 213.029 202.399 213.046C202.449 213.079 202.5 213.112 202.552 213.142C202.598 213.169 202.643 213.195 202.689 213.219C202.739 213.246 202.79 213.271 202.841 213.295C202.891 213.318 202.94 213.34 202.99 213.361C203.041 213.381 203.092 213.4 203.143 213.419C203.195 213.437 203.248 213.454 203.3 213.47C203.352 213.486 203.405 213.5 203.458 213.512C203.511 213.525 203.564 213.538 203.617 213.548C203.671 213.558 203.725 213.567 203.781 213.575C203.834 213.583 203.888 213.59 203.942 213.595C203.996 213.6 204.051 213.603 204.106 213.606C204.162 213.609 204.218 213.61 204.274 213.609C204.327 213.609 204.379 213.607 204.432 213.605C204.492 213.601 204.551 213.597 204.61 213.59C204.64 213.587 204.669 213.587 204.699 213.583C204.721 213.58 204.742 213.574 204.765 213.571C204.822 213.562 204.879 213.551 204.936 213.539C204.989 213.528 205.043 213.517 205.096 213.504C205.146 213.491 205.196 213.475 205.246 213.46C205.303 213.443 205.359 213.425 205.414 213.405C205.459 213.389 205.504 213.37 205.548 213.351C205.604 213.328 205.661 213.305 205.715 213.278C205.759 213.257 205.802 213.233 205.846 213.21C205.898 213.182 205.949 213.155 205.999 213.124C206.045 213.097 206.089 213.067 206.133 213.037C206.178 213.006 206.224 212.976 206.267 212.944C206.312 212.91 206.355 212.874 206.398 212.838C206.439 212.804 206.48 212.771 206.519 212.735C206.56 212.698 206.599 212.658 206.638 212.619C206.677 212.58 206.716 212.54 206.753 212.5C206.787 212.461 206.821 212.42 206.854 212.379C206.892 212.333 206.929 212.286 206.965 212.238C206.978 212.22 206.992 212.204 207.005 212.187C207.021 212.162 207.035 212.137 207.051 212.113C207.085 212.063 207.117 212.012 207.148 211.96C207.175 211.916 207.201 211.87 207.225 211.824ZM177.368 190.988L160.327 211.455L138.565 196.121C137.134 195.112 135.167 195.373 134.048 196.72L117.04 217.178L95.2875 201.845C93.8561 200.836 91.8895 201.096 90.7701 202.443L73.7566 222.903L52.0098 207.569C50.5787 206.559 48.6117 206.82 47.4923 208.167L33.4023 225.111L18.5516 112.824C12.4798 66.9138 44.8905 24.6233 90.8007 18.5514C136.711 12.4795 179.001 44.8904 185.073 90.8002L199.924 203.094L181.883 190.391C180.452 189.384 178.488 189.644 177.368 190.988Z" fill="#313136"/>
<path d="M78.2545 98.4194C76.6677 99.3801 76.1603 101.445 77.121 103.032C78.0822 104.62 78.6945 106.367 78.9403 108.225C79.9118 115.571 74.7261 122.338 67.3801 123.31C60.0342 124.281 53.2672 119.096 52.2956 111.749C51.324 104.403 56.5099 97.6368 63.8562 96.6652C65.7087 96.4202 67.5492 96.5554 69.3264 97.0665C71.1088 97.5787 72.9699 96.5499 73.4829 94.7674C73.9958 92.9849 72.9663 91.1239 71.1838 90.611C68.5125 89.8425 65.7507 89.639 62.9759 90.006C51.9578 91.4632 44.1796 101.612 45.6368 112.63C47.094 123.648 57.2432 131.426 68.2613 129.969C79.2789 128.512 87.0571 118.363 85.5999 107.345C85.2317 104.561 84.3124 101.939 82.8674 99.5528C81.9063 97.9661 79.8403 97.4584 78.2545 98.4194Z" fill="#313136"/>
<path d="M151.524 88.7292C149.937 89.6899 149.43 91.755 150.391 93.3418C151.352 94.9293 151.964 96.6769 152.21 98.5353C153.181 105.881 147.996 112.648 140.65 113.62C133.304 114.591 126.537 109.406 125.565 102.059C124.594 94.7132 129.779 87.9466 137.126 86.975C138.978 86.73 140.819 86.8652 142.596 87.3763C144.378 87.8885 146.239 86.8597 146.752 85.0772C147.265 83.2947 146.236 81.4337 144.453 80.9208C141.782 80.1523 139.02 79.9488 136.245 80.3158C125.227 81.773 117.449 91.9222 118.906 102.94C120.364 113.958 130.513 121.736 141.531 120.279C152.548 118.822 160.327 108.673 158.869 97.6545C158.501 94.8705 157.582 92.2488 156.137 89.8626C155.176 88.2759 153.11 87.7682 151.524 88.7292Z" fill="#313136"/>
<path d="M591.528 107.999L575.539 98.019L580.353 90.2558C581.121 89.0175 580.741 87.388 579.505 86.6163C578.269 85.845 576.644 86.2235 575.876 87.4616L574.01 90.4722L560.599 82.1016C560.88 75.6874 560.285 69.2634 558.821 62.9817L549.607 23.4312C549.321 22.2019 548.208 21.3462 546.95 21.3885C516.453 22.4152 486.888 29.3026 459.077 41.8592C457.93 42.3771 457.309 43.637 457.595 44.8663L466.809 84.4169C470.113 98.5977 477.579 111.231 488.4 120.951C499.222 130.671 512.563 136.728 526.981 138.465C527.287 138.502 527.595 138.484 527.891 138.415C528.187 138.346 528.472 138.226 528.73 138.057C538.216 131.873 546.082 123.455 551.622 113.598L557.425 117.22L555.559 120.23C554.791 121.469 555.17 123.098 556.407 123.87C557.025 124.256 557.74 124.354 558.396 124.201C559.053 124.048 559.651 123.644 560.035 123.025L564.849 115.261L580.837 125.241C583.135 126.676 585.852 127.128 588.487 126.514C591.122 125.9 593.36 124.294 594.788 121.991C596.215 119.688 596.663 116.965 596.047 114.322C595.431 111.679 593.826 109.433 591.528 107.999ZM567.885 100.35L567.108 101.604L505.99 63.4545L517.858 61.6434L571.229 94.9571L567.885 100.35ZM544.71 66.2693C545.22 68.4585 545.595 70.6719 545.841 72.8893L519.812 56.6424C519.278 56.3091 518.643 56.178 518.021 56.2729L498.146 59.3061C497.384 59.4215 496.713 59.8658 496.308 60.5209C495.901 61.1757 495.802 61.9763 496.034 62.7122L502.106 81.9414C502.295 82.5427 502.693 83.0561 503.227 83.3894L539.299 105.905C535.579 112.74 530.575 118.598 524.382 123.349C514.608 121.394 505.529 116.84 498.062 110.135C489.47 102.416 483.543 92.3861 480.921 81.1295L474.298 52.7004C494.526 43.7048 515.967 38.71 538.087 37.8402L544.71 66.2693L544.71 66.2693ZM526.652 133.097C513.679 131.343 501.686 125.795 491.913 117.017C481.903 108.026 474.996 96.3394 471.941 83.2215L463.222 45.7965C489.17 34.3719 516.647 27.9709 544.972 26.7524L553.69 64.1774C554.815 69.0061 555.385 73.9257 555.397 78.8544L551.393 76.3555C551.228 72.5838 550.709 68.7958 549.842 65.0739L542.726 34.5303C542.441 33.3071 541.337 32.453 540.085 32.4872C515.774 33.1483 492.24 38.6306 470.139 48.7815C469.001 49.3038 468.389 50.5581 468.674 51.7812L475.789 82.325C478.659 94.6444 485.146 105.621 494.549 114.069C503.03 121.685 513.414 126.766 524.577 128.761C524.932 128.825 525.292 128.814 525.636 128.734C525.98 128.654 526.308 128.505 526.598 128.291C533.758 123.019 539.524 116.437 543.781 108.703L547.142 110.801C542.167 119.726 535.133 127.387 526.652 133.097ZM506.835 79.4213L503.21 67.9394L564.327 106.088L560.206 112.735L506.835 79.4213ZM572.759 102.504L574.764 103.755L573.035 114.15L567.629 110.776L572.759 102.504ZM577.876 117.172L579.605 106.777L583.143 108.985L581.414 119.38L577.876 117.172ZM590.311 119.196C589.626 120.301 588.552 121.072 587.288 121.366C586.995 121.435 586.701 121.472 586.407 121.486L587.984 112.007L588.747 112.483C589.85 113.172 590.62 114.249 590.915 115.517C591.21 116.785 590.996 118.092 590.311 119.196Z" fill="#313136"/>
<path d="M364.471 467.59L339.818 476.776C337.533 477.627 336.37 480.17 337.222 482.456L346.407 507.109C347.259 509.395 349.802 510.557 352.087 509.706L376.74 500.52C379.026 499.669 380.188 497.125 379.337 494.84L370.151 470.187C369.3 467.901 366.756 466.739 364.471 467.59ZM369.518 493.785L353.142 499.887L347.041 483.511L363.416 477.409L369.518 493.785Z" fill="#313136"/>
<path d="M413.777 449.22L389.125 458.405C386.84 459.256 385.677 461.8 386.528 464.085L395.714 488.738C396.565 491.024 399.109 492.186 401.394 491.335L426.047 482.149C428.332 481.298 429.495 478.755 428.643 476.469L419.458 451.816C418.606 449.53 416.063 448.368 413.777 449.22ZM418.824 475.414L402.449 481.516L396.347 465.14L412.723 459.038L418.824 475.414V475.414Z" fill="#313136"/>
<path d="M472.271 455.496L451.757 463.14L434.93 417.976C434.078 415.691 431.535 414.528 429.249 415.38L408.731 423.025L401.087 402.51C400.236 400.225 397.692 399.062 395.407 399.914L321.448 427.47C319.163 428.321 318 430.865 318.852 433.15L326.495 453.665L305.977 461.31C303.691 462.161 302.529 464.705 303.38 466.99L320.207 512.153L299.693 519.797C297.408 520.648 296.245 523.192 297.097 525.477L315.47 574.791C316.322 577.077 318.866 578.239 321.151 577.388L345.803 568.203C348.089 567.351 349.251 564.808 348.4 562.522L340.755 542.004L357.135 535.901L364.78 556.419C365.631 558.705 368.175 559.867 370.46 559.016L395.113 549.83C397.398 548.979 398.561 546.436 397.71 544.15L390.065 523.631L406.441 517.53L414.086 538.048C414.937 540.334 417.481 541.496 419.766 540.645L444.418 531.46C446.704 530.608 447.867 528.065 447.015 525.779L439.37 505.261L455.75 499.158L463.395 519.676C464.247 521.962 466.79 523.124 469.075 522.273L493.728 513.087C496.014 512.236 497.177 509.693 496.325 507.407L477.951 458.093C477.1 455.807 474.557 454.645 472.271 455.496ZM486.507 506.352L470.131 512.454L462.486 491.935C461.634 489.649 459.091 488.487 456.806 489.338L432.148 498.525C429.863 499.377 428.7 501.92 429.552 504.206L437.197 524.724L420.821 530.826L413.176 510.307C412.324 508.022 409.781 506.859 407.496 507.711L382.843 516.896C380.557 517.748 379.395 520.291 380.246 522.577L387.891 543.095L371.515 549.197L363.87 528.678C363.019 526.392 360.475 525.23 358.19 526.082L333.533 535.268C331.248 536.12 330.085 538.663 330.936 540.949L338.581 561.467L322.205 567.569L306.915 526.532L327.429 518.889C329.715 518.037 330.878 515.494 330.026 513.208L313.199 468.045L333.717 460.4C336.002 459.549 337.165 457.005 336.314 454.72L328.67 434.205L394.352 409.733L401.995 430.247C402.847 432.533 405.391 433.695 407.676 432.844L428.194 425.199L445.022 470.362C445.873 472.648 448.417 473.81 450.702 472.959L471.216 465.315L486.506 506.352L486.507 506.352Z" fill="#313136"/>
</svg>
